<svg xmlns="http://www.w3.org/2000/svg" width="1024" height="1024"><path fill="#ce6b4b" d="m237.566 169.733 4.708-.014c5.197-.013 10.395-.011 15.592-.01q5.594-.008 11.187-.02 13.603-.023 27.205-.023 11.048-.001 22.093-.012 31.305-.026 62.606-.025h6.816c18.282.001 36.564-.018 54.845-.046q28.141-.043 56.282-.04c10.538 0 21.075-.006 31.613-.027q14.838-.029 29.676-.005 5.468.003 10.936-.015c4.944-.015 9.888-.006 14.832.01l4.454-.032c3.96.028 3.96.028 9.589.526-1.835 3.67-3.333 5.553-6.125 8.438-19.078 21.062-24.891 48.923-23.7 76.652 1.866 17.053 7.637 32.949 15.825 47.91 3 5.724 3 5.724 3 8-2.456-.305-2.456-.305-5.981-1.097l-4.043-.887-4.516-1.012c-57.44-12.426-114.96-21.373-173.496-26.63q-3.46-.31-6.919-.63c-132.4-12.193-132.4-12.193-180.172 22.627-27.806 24.144-30.371 72.357-32.865 106.563-3.066 45.666-1.958 91.08.68 136.736q.373 6.507.736 13.014a2636 2636 0 0 0 20.758 213.093l.774 5.601.728 5.126.627 4.418c1.443 8.538 3.7 13.921 8.689 21.078v2l4 2 3.875 2.063c5.955 2.797 11.105 3.062 17.632 3.068l4.61.012 5.058-.003 5.38.01q7.392.01 14.786.01 7.973.005 15.945.016 17.433.02 34.865.024 10.884.004 21.767.012 30.13.019 60.26.026h7.799l7.833.002h3.925q31.49.009 62.98.046 32.327.035 64.653.037 18.151-.001 36.304.025 15.453.023 30.907.012 7.886-.008 15.77.011c5.699.013 11.397.007 17.095-.004l5.037.025c13.206-.057 22.196-2.069 31.831-11.704 5.217-8.308 5.117-16.799 5.073-26.254l.016-4.419c.014-4.882.007-9.764 0-14.646q.008-5.254.02-10.507.024-11.312.02-22.625c-.002-10.92.014-21.842.035-32.763q.049-26.613.068-53.228l.002-3.216.01-12.9q.013-17.73.03-35.463l.004-3.206q.028-26.505.075-53.008.03-17.78.03-35.56.007-11.077.027-22.156.007-5.126.003-10.25c-.004-4.678.005-9.355.017-14.032l-.012-4.062c.143-32.496 10.078-61.273 30.168-86.713C724 359 724 359 726 356h2l2-4c5.074-5.337 10.425-10.185 16-15q2.409-2.185 4.812-4.375a255 255 0 0 1 10.375-8.875c22.294-18.105 44.27-36.906 53.813-64.75l1.09-3.098c3.274-10.44 1.793-20.25-2.215-30.152-5.68-9.383-12.766-14.855-22.875-18.75-11.907-2.447-23.263-.615-33.563 5.875-5.3 4.819-8.602 9.342-11.875 15.688-3.483 6.59-6.3 10.227-13.437 12.875-5.828.794-9.924-.277-15.094-3.004-3.884-3.119-5.286-6.258-7.406-10.746-5.85-11.457-12.6-16.674-24.625-20.688-11.423-2.285-21.376-.619-31.422 5.176-7.694 5.444-13 14.875-15.39 23.887-1.351 21.161 7.474 38.894 21.175 54.656a397 397 0 0 0 4.559 4.992c2.078 2.289 2.078 2.289 4 4.797 2.296 2.753 4.754 4.789 7.578 6.992 5.084 3.967 8.9 7.098 10.5 13.5.542 6.5-.576 10.447-4 16-3.325 3.325-6.399 5.027-11 6-11.865-.488-17.83-7.238-26-15l-3.695-3.46C632.21 315.781 624.903 306.552 618 296c-.38-.556-.38-.556-2.309-3.367-12.305-18.656-17.048-41.904-13.543-63.942 4.872-21.118 16.759-36.93 34.664-48.753 16.704-10.154 35.427-12.36 54.618-9.211 12.945 3.256 25.038 8.74 34.57 18.273 5-1 6.075-1.573 9.687-4.75C751.725 171.003 770.948 168.998 791 170c15.277 2.23 28.57 8.702 40 19l3.625 3.25c15.17 16.856 20.097 34.883 19.715 57.285-1.28 20.569-9.81 38.388-22.34 54.465l-2.719 3.578A876 876 0 0 1 822 317l-1.79 2.434c-3.081 3.577-6.632 6.488-10.21 9.566a1319 1319 0 0 0-8 7.5C786.661 351 786.661 351 784 351v2a977 977 0 0 1-8 6 418 418 0 0 0-7.898 7.242C766 368 766 368 764 368l-2 4a230 230 0 0 1-6.125 6c-16.201 16.076-26.076 38.203-27.003 61.179l-.005 3.308-.013 3.845.001 4.185-.01 4.477q-.015 7.436-.019 14.872l-.02 10.654q-.022 11.478-.036 22.955a38890 38890 0 0 1-.058 33.222q-.057 26.972-.105 53.945l-.006 3.26a168534 168534 0 0 0-.078 49.065l-.005 3.254q-.04 26.867-.101 53.733a27800 27800 0 0 0-.056 36.082q-.016 11.221-.047 22.444-.01 5.205-.012 10.412c0 4.737-.014 9.473-.03 14.21l.008 4.165c-.104 19.287-6.274 35.124-19.28 49.42-15.203 14.393-33.493 17.928-53.649 17.814l-5.566.017q-7.598.014-15.194-.01c-5.475-.01-10.95.001-16.425.01-10.712.014-21.424.006-32.135-.009a22654 22654 0 0 0-37.444-.01c-22.273.006-44.545-.008-66.817-.032q-32.4-.036-64.8-.021-35.307.018-70.615-.001l-7.532-.005-3.743-.002q-13.042-.006-26.086.001-15.898.009-31.795-.02-8.107-.017-16.215-.008c-5.863.009-11.726-.006-17.59-.023l-5.159.018c-11.824-.063-21.97-1.275-32.61-6.843l-3.398-1.747c-3.204-1.803-6.265-3.637-9.227-5.816v-2l-4-2c-12.131-12.58-19.116-27.958-19.134-45.459l-.007-2.951q-.009-4.935-.006-9.869l-.011-7.116q-.014-9.807-.017-19.616-.007-10.568-.022-21.134c-.02-17.025-.03-34.05-.039-51.075l-.015-24.046a217965 217965 0 0 1-.044-100.678l-.002-5.21c-.008-27.843-.033-55.686-.066-83.53q-.049-42.87-.054-85.741c-.002-16.05-.01-32.098-.036-48.148q-.034-20.505-.02-41.009c.004-6.973.002-13.946-.017-20.919q-.026-9.584-.001-19.169.004-3.458-.014-6.917c-.104-21.471 2.676-39.072 16.817-55.768 14.422-14.192 31.751-17.954 51.254-17.912"/><path fill="#ce6a4a" d="M852 326h2c.252 3.012.252 3.012.254 7.335l.018 4.958-.011 5.538.011 5.813c.01 5.357.008 10.713.004 16.07-.002 5.765.007 11.53.014 17.295q.018 16.965.012 33.93-.002 13.792.005 27.585l.001 3.958.004 7.96q.014 37.385.003 74.771c-.006 22.799.006 45.598.025 68.396q.03 35.093.024 70.184c-.002 13.14 0 26.28.014 39.42q.019 16.793.002 33.584c-.006 5.71-.007 11.421.005 17.132.012 6.196.002 12.392-.01 18.589l.022 5.45c-.088 20.294-5.105 37.174-19.397 52.032-13.04 12.51-29.37 18.378-47.292 18.372l-3.202.011c-3.447.008-6.892-.005-10.338-.02l-7.22.002q-7.526 0-15.05-.029a4164 4164 0 0 0-19.358-.016c-4.955.003-9.91-.004-14.866-.013q-3.573-.006-7.145-.004-4.96-.002-9.919-.028l-5.71-.014L691 854l1-2a123 123 0 0 1 6.375-1.687c7.216-1.978 12.62-4.923 18.625-9.313l4.75-3.375c11.822-10.084 19.932-25.487 21.621-41.041.136-3.663.156-7.307.128-10.972l.016-4.215c.013-4.63-.002-9.26-.017-13.89q.006-4.998.017-9.997.017-10.743.001-21.486c-.015-11.335-.001-22.67.016-34.005q.034-23.85.032-47.702v-15.301a102201 102201 0 0 1 .003-36.727q.007-25.192.044-50.384.022-16.885.003-33.772c-.005-7.017.003-14.035.013-21.052q.004-4.863-.008-9.725C743.533 451.79 747.518 424.61 773 398c6.55-6.248 13.657-11.52 20.926-16.906 4.884-3.71 9.537-7.637 14.183-11.637 2.468-2.098 5.016-4.1 7.578-6.082 12.515-9.794 24.195-21.063 33.625-33.875z"/><path fill="#cd6b4b" d="M570.64 413.913c4.404-.038 8.808-.065 13.212-.09 2.98-.021 5.959-.058 8.938-.096l5.358-.026 4.627-.044c8.075.656 13.585 3.59 19.225 9.343 2.125 4.342 2.496 8.207 2 13-2.532 6.427-5.723 10.862-12 14a474 474 0 0 1-12.304.147l-3.938.011q-6.578.015-13.157.019l-9.395.02q-12.798.025-25.594.036l-15.975.018q-24.971.029-49.943.041-28.864.015-57.727.077-22.284.044-44.568.048c-8.881.002-17.762.011-26.643.036q-12.53.035-25.059.018-4.603 0-9.207.02c-4.184.017-8.367.01-12.551-.003l-3.696.033c-6.515-.05-10.97-.566-16.243-4.521-4.134-4.46-4.946-7.086-5.313-13.25.378-6.954 1.803-10.424 6.875-15.125 5.019-3.345 9.704-2.763 15.619-2.783l3.211-.015c3.57-.016 7.142-.024 10.712-.032l7.665-.03q10.451-.04 20.902-.068 10.992-.035 21.984-.076 18.533-.066 37.064-.124 25.886-.081 51.77-.174a264418 264418 0 0 1 57.555-.196l4.115-.014a16034 16034 0 0 1 27.327-.07c.609 0 .609 0 3.689-.007q10.732-.028 21.465-.123"/><path fill="#cd6c4c" d="m305.551 653.733 3.945-.014c4.382-.013 8.764-.011 13.146-.01q4.7-.008 9.401-.02c8.527-.018 17.054-.022 25.58-.024 7.11-.001 14.22-.009 21.33-.016q25.155-.023 50.31-.02c17.319.002 34.637-.02 51.956-.051q22.278-.038 44.558-.036c8.878 0 17.755-.005 26.633-.026q12.522-.029 25.042-.005 4.602.003 9.204-.015c4.18-.015 8.359-.006 12.539.01l3.7-.032c6.201.051 10.409.27 15.105 4.526 3.707 4.016 5.797 7.811 6.312 13.375-.543 6.3-2.273 9.64-6.875 14-5.81 4.437-10.661 3.779-17.772 3.786l-3.948.015c-4.397.016-8.795.024-13.192.033l-9.42.03q-15.51.043-31.02.07l-5.323.01q-24.84.047-49.68.074-31.814.031-63.627.133-22.347.07-44.693.08c-8.905.004-17.81.02-26.715.059-8.377.037-16.753.045-25.13.032q-4.616 0-9.23.032c-4.197.027-8.393.018-12.59 0l-3.698.05c-7.626-.085-11.638-1.338-17.399-6.779-3.923-5.271-3.44-10.618-3-17 6.516-10.86 12.289-12.298 24.551-12.267"/><path fill="#ce6c4c" d="M622 546c2.61 6.523 2.933 10.597.375 17.188-2.983 4.788-5.96 8.007-11.375 9.812-4.124.102-8.23.143-12.355.14l-3.918.01q-6.535.01-13.072.011l-9.341.015q-12.717.019-25.432.024l-15.875.012q-24.813.02-49.627.027-28.682.007-57.363.05-22.145.033-44.291.034-13.237 0-26.476.025-12.45.023-24.897.01-4.575-.002-9.15.013a2159 2159 0 0 1-12.467-.004l-3.679.025c-10.332-.061-10.332-.061-15.057-3.392-5.845-6.286-7.477-9.147-7.414-17.879.654-4.93 3.033-7.612 6.414-11.121 6.014-3.608 10.6-3.432 17.379-3.412l3.852-.025c4.273-.023 8.546-.025 12.819-.027q4.587-.018 9.175-.04c8.318-.037 16.636-.054 24.955-.068 8.7-.017 17.399-.049 26.099-.079q21.924-.071 43.85-.112 25.345-.053 50.692-.146 24.372-.085 48.744-.145 10.375-.028 20.75-.064 12.224-.041 24.448-.057 4.485-.008 8.971-.026c4.084-.017 8.168-.02 12.252-.022l3.58-.023c11.168.024 19.375.756 27.434 9.246"/><path fill="#cd6949" d="M294 416c4.004-.1 7.992-.13 11.997-.12l3.91-.003c4.367-.002 8.734.004 13.1.01l9.34-.001q12.732.001 25.463.013 13.284.007 26.57.008 25.18.005 50.36.021 28.658.016 57.315.022 58.973.016 117.945.05c-4 3-4 3-9 6l-4-1h-3v6l-4-1 2 4v-2h3c2 5 2 5 1 8l1 2-1 2 4 2v2h5l1 3c-4.068.304-7.988.387-12.06.356l-3.921.007c-4.318.003-8.635-.016-12.953-.035q-4.48-.005-8.96-.006-9.42-.007-18.842-.04c-8.047-.029-16.094-.04-24.14-.044q-9.267-.008-18.534-.026l-8.897-.015q-6.234-.01-12.468-.036l-3.715-.003c-12.48-.063-12.48-.063-17.51-1.158l1-3c2.342.265 4.676.606 7 1l4-1-2-3h-3v-2h-2l-1-1-2 2-2-1 1-3c-2.93-.398-2.93-.398-6.875-.375l-3.93-.023L451 435l-1 3h-6l-2-4h-2v-2h-2l-1 4-5 1-4 1v-4h-4v2l-6-2v2h-2v-2h-4v-2h-2v2h-2v-2h-2v2h-6v-4h-2c-.312-3.875-.312-3.875 0-8 3-2 3-2 8-2v-2h-6l-1 3-5-1v-2c-3.937-.312-3.937-.312-8 0l-1 3c-2 1-2 1-8 1v2c2.844.125 2.844.125 6.5 0s3.656-.125 6.5 0v2l-3.625-.312L383 426c.599 2.352 1.27 4.686 2 7l-5 1v-4h-2v4h-2v-7h-2v3l-3-1-1-2-2 1v-6h-2v2h-6l-1 2v-4l-3 1-4-2 2-3-4.746.035c-13.488.067-26.958-.086-40.442-.473l-4.445-.118-4.097-.128-3.67-.11c-.428-.035-.428-.035-2.6-.206z"/><path fill="#d08067" d="M852 326h2c.25 3.015.25 3.015.252 7.343l.015 4.964-.013 5.545.01 5.819c.008 5.362.004 10.724-.003 16.087-.004 5.77.003 11.542.008 17.313.01 11.322.007 22.643.002 33.964q-.008 13.803-.003 27.606v3.96l.003 7.965q.006 37.407-.012 74.814-.012 32.103.002 64.205a109768 109768 0 0 1 .007 82.436l-.001 3.95q-.003 13.78.006 27.56.009 16.803-.007 33.606-.009 8.575 0 17.15a7202 7202 0 0 1-.012 18.592l.013 5.476c-.025 8.137-.1 15.77-2.267 23.645h-1c-.104-2.306-.13-4.615-.133-6.923l-.013-4.68.001-5.226-.01-5.486q-.014-7.582-.016-15.163-.008-8.16-.023-16.32-.022-14.153-.036-28.307-.022-20.47-.058-40.94-.057-33.216-.105-66.433l-.006-4.02q-.039-28.243-.073-56.486l-.005-4.017-.005-4.012q-.04-33.08-.101-66.16-.038-20.425-.054-40.85-.01-13.991-.042-27.982a7287 7287 0 0 1-.019-16.163c0-5.832-.014-11.663-.03-17.495l.008-5.2-.021-4.71-.005-4.083C850 364 850 364 848 360c-2.875.313-2.875.313-6 1l-4-1v2h-2l-1 3h-8l-1-3c-2.937 0-2.937 0-6 1l-2 5c-2.488 6.22-5.478 8.343-11 12l-4-2c-3 1-3 1-5 5l-4 3-2 3c-5 2.25-5 2.25-10 4l-2-1c2.09-1.881 4.281-3.649 6.5-5.375l4.203-3.293L795 380a7146 7146 0 0 0 7.25-5.687l3.469-2.723c15.888-12.54 31.527-25.698 43.593-42.09z"/><path fill="#d48b74" d="m237.566 169.733 4.708-.014c5.197-.013 10.395-.011 15.592-.01q5.594-.008 11.187-.02 13.603-.023 27.205-.023 11.048-.001 22.093-.012 31.305-.026 62.606-.025h6.816c18.282.001 36.564-.018 54.845-.046q28.141-.043 56.282-.04c10.538 0 21.075-.006 31.613-.027q14.838-.029 29.676-.005 5.468.003 10.936-.015c4.944-.015 9.888-.006 14.832.01l4.454-.032c3.96.028 3.96.028 9.589.526-1.835 3.67-3.333 5.553-6.125 8.438C584.846 188.35 579.568 199.49 575 212c-1.279-3.836-1.252-6.976-1-11l3-3c.571-10.857.571-10.857-2-16h-2l3-6h-2v-2c6 0 6 0 10 3l2 5 2 1v-2l-2-1h3l1-3h3l1-4c-4.738-.42-9.25-.537-13.996-.508l-4.598-.019c-5.142-.016-10.283-.003-15.425.01q-5.494-.009-10.99-.022a8588 8588 0 0 0-26.854-.002q-10.908.013-21.815.006l-3.128-.002-6.29-.004c-19.694-.011-39.388.002-59.081.023q-25.38.026-50.757-.003a34278 34278 0 0 0-65.12-.014l-3.117.002q-10.9.003-21.8-.012-14.658-.018-29.316.02-5.4.007-10.797-.006c-4.889-.01-9.777.003-14.666.023l-4.38-.027c-3.295.026-6.587.257-9.87.535l-1 4-2 3-2-2-1 4h-2v-2h-3v-2l-2 1q-5.495.55-11 1c10.398-10.398 25.822-10.297 39.566-10.267"/><path fill="#d3886f" d="M570.64 413.913c4.404-.038 8.808-.065 13.212-.09 2.98-.021 5.959-.058 8.938-.096l5.358-.026 4.627-.044c8.075.656 13.585 3.59 19.225 9.343 2.125 4.342 2.496 8.207 2 13-2.532 6.427-5.723 10.862-12 14-4.113.101-8.21.139-12.324.134l-3.944.007q-6.59.007-13.179.004l-9.41.01q-12.814.013-25.63.012-10.68.002-21.36.008-25.188.012-50.376.01-26.024.001-52.047.026-22.306.019-44.613.018-13.339-.002-26.678.013-12.54.014-25.081.003-4.612-.003-9.225.007c-4.185.008-8.37.003-12.555-.005l-3.722.016c-8.4-.035-8.4-.035-12.856-2.263v-1h6v1c3.84.102 7.662.134 11.503.127l3.75.005c4.187.004 8.374 0 12.561-.003l8.956.006q12.207.005 24.415 0c8.492-.003 16.984 0 25.476 0q21.397.003 42.795-.005 24.785-.007 49.569.002 21.229.007 42.458.003 12.701-.003 25.403.001 11.937.004 23.874-.005 4.398 0 8.795.002 5.97.002 11.942-.006l3.573.007c2.643-.007 5.287-.064 7.93-.134v-1l4.062.062L606 447l-1-2-5-1c-4-4-4-4-5-9l1-4-1-3h-3l1 3-3-1v-4l4 1v-2l-2-1 2-3h2v-2l2 1 4 1 1-2 5-2q-61.281-.035-122.562-.052-28.453-.007-56.906-.023-24.793-.015-49.585-.02-13.134 0-26.267-.01-12.353-.012-24.704-.008-4.542 0-9.084-.006-6.185-.007-12.37-.001l-3.658-.01c-4.802.01-9.14.185-13.864 1.13 1-2 1-2 4-3 3.392-.107 6.787-.147 10.18-.158l3.212-.015c3.57-.016 7.142-.024 10.712-.032l7.665-.03q10.451-.04 20.902-.068c7.328-.022 14.656-.05 21.984-.076q18.533-.066 37.064-.124 25.886-.081 51.77-.174a264418 264418 0 0 1 57.555-.196l4.115-.014a16034 16034 0 0 1 27.327-.07c.609 0 .609 0 3.689-.007q10.732-.028 21.465-.123"/><path fill="#d28870" d="m215 849 2.506.493c3.852.559 7.51.627 11.403.622h4.884l5.36-.015 5.698-.004q7.833-.006 15.665-.024 8.445-.014 16.89-.02 14.632-.015 29.264-.038c15.404-.023 30.808-.036 46.211-.048l15.801-.012 3.989-.003q22.47-.018 44.943-.04l4.15-.004q33.344-.036 66.687-.084 34.2-.049 68.401-.065 21.116-.01 42.233-.052 14.448-.029 28.898-.027c5.567 0 11.134-.005 16.702-.023 6.017-.02 12.033-.016 18.05-.01l5.409-.029 4.827.017 4.217-.005L680 850l-1 3c-4.45.89-8.103 1.126-12.61 1.129l-4.76.01-5.237-.005-5.556.007q-7.644.007-15.29.004-8.24.002-16.48.01-16.148.013-32.295.012-13.122 0-26.242.006-37.18.014-74.36.012h-8.107q-32.55.002-65.101.023-33.403.023-66.805.02-18.762-.001-37.522.014-15.972.014-31.942.005-8.152-.007-16.303.005c-5.886.01-11.771.003-17.656-.005l-5.231.016-4.766-.014h-4.119c-5.793-.399-8.961-1.756-13.618-5.249"/><path fill="#c37e67" d="M226 818a161 161 0 0 1 6.981-.113h4.718l5.27.017 5.532.006q7.645.01 15.29.03 8.227.016 16.454.026 16.135.025 32.269.06 13.106.03 26.211.053 37.104.07 74.208.154l4.046.009 4.05.01q32.52.071 65.038.121 33.338.054 66.675.13 18.738.043 37.475.07 15.95.02 31.9.067 8.149.024 16.296.03c5.873.005 11.745.024 17.617.045l5.27-.004 4.719.024 4.115.009L673 819v2c-2.82.25-2.82.25-6.87.252l-4.644.015-5.188-.013-5.444.01q-7.525.008-15.05-.003c-5.398-.004-10.797.003-16.196.008-10.59.01-21.18.007-31.77.002q-12.909-.008-25.817-.003h-3.703l-7.448.003q-34.974.006-69.948-.012-30.027-.012-60.054.002a96052 96052 0 0 1-80.778.006q-12.893-.003-25.784.006-15.712.009-31.426-.007-8.021-.009-16.042 0a6288 6288 0 0 1-17.374-.012l-5.147.013-4.691-.015-4.053-.001c-3.537-.248-6.306-.896-9.573-2.251z"/><path fill="#d19e8d" d="m588 309 1 2c-4.838-.906-9.618-1.922-14.42-2.996-57.455-12.436-115-21.374-173.552-26.63a3200 3200 0 0 1-6.922-.63c-132.437-12.193-132.437-12.193-180.23 22.627-27.813 24.14-30.379 72.355-32.872 106.563-3.065 45.666-1.955 91.08.684 136.736q.374 6.507.736 13.014a2636 2636 0 0 0 20.758 213.093l.774 5.601 1.355 9.544c.693 4.099 1.63 8.06 2.689 12.078l1 4h-3c-.873-3.69-1.473-7.25-2-11l-.627-4.195c-11.41-77.51-18.882-155.365-23.254-233.578q-.367-6.516-.745-13.032C169.065 360.84 169.065 360.84 204 310c26.963-29.258 73.41-32.506 110.958-34.167 25.924-.925 51.704.77 77.517 3.049q5.205.457 10.41.901c57.445 4.97 114.06 13.584 170.417 25.764l4.518.97 4.06.903 3.534.782z"/><path fill="#daa996" d="M745 451h1c.117 4.412.164 8.81.172 13.222l.019 4.31q.028 7.221.046 14.442l.04 10.295q.053 14.036.092 28.073l.075 23.388q.086 26.001.16 52.003l.009 3.156.008 3.16q.074 25.346.17 50.692.095 25.995.169 51.99.04 14.606.097 29.213.053 13.734.081 27.47.013 5.053.036 10.105.03 6.876.035 13.75l.028 4.08c-.009 9.194-.009 9.194-2.237 13.651h2l-2 5h-2l-1 4h-2c.838-4.383 1.918-8.672 3-13 .105-4.463.15-8.91.151-13.373l.013-4.213q.019-7.021.025-14.044l.026-10.041q.027-10.83.045-21.66.032-17.116.077-34.233.06-23.995.11-47.99l.007-3.076.105-49.365q.054-25.338.119-50.675.042-17.022.071-34.043.021-10.587.05-21.172.012-4.916.018-9.83.01-6.702.032-13.404v-3.942c.025-6.05.095-11.96 1.151-17.939"/><path fill="#cd6948" d="M621 261h1l.125 4.938L623 271c3.563 1 3.563 1 7 1v2h4l1 4 3 3v3l2-1 1-3h4l1 4 5-1 3 3v3l3 1v5h2l-1 3v-2h-2v-2h-2v8h-2c-1.25-4-1.25-4-2-8h2q-.376-4.513-1-9l-3 3-1-2-3-1-1 3-4.937.125L633 289c-1.25 4.375-1.25 4.375-2 9-3 2.125-3 2.125-6 3-2.855-1.428-4.204-3.399-6-6l1-3-3-1-2-3 1.063-3.562L617 281l-3-2-2 1-2-1c-.812-3.5-.812-3.5-1-7l3-1 1-3 3.5.25 3.5-.25c.875-3.5.875-3.5 1-7"/><path fill="#cf6e4f" d="M781 349h6l-1 2h-2v2a977 977 0 0 1-8 6 418 418 0 0 0-7.898 7.242C766 368 766 368 764 368l-2 4a230 230 0 0 1-6.125 6c-9.962 9.853-15.798 20.001-20.875 33-2-3-2-3-2-7h2l1-2h-3l-1-2h-2v2h-2l-1 5-5-1v-6h4v-2l-2-1a100 100 0 0 1 2-6l1-5 2-3h4l.375-3.375L734 376c2.688-1.25 2.688-1.25 6-2l3.375-1.812L746 371v3h-2v2h2v2h-2v2h2v2c2-1 2-1 3-3l1-1 1-3 3-1v-2l4 1 2-2-.187-3.562L760 364c5-1 5-1 7-1v-2l4-2v-2h5v-2h-2v-2l3.5.125L781 353z"/><path fill="#ce6847" d="M710 454h2a236 236 0 0 1-1 7l1 1 1-2h3v4h-2a128 128 0 0 0 0 8l2-2v2l3 1v1h-5l-1 2h-3l2 5 2-1v5h-2v5h-6v2h-4l-1 5c-2 3-2 3-5 4-1.51-7.948-1.082-11.857 3-19l-1-3a116 116 0 0 1-.437-7l-.184-3.75c.621-3.25.621-3.25 3.46-5.187C704 462 704 462 707 462q-.49-3.001-1-6l3 1zm-2 26 1 2 1-2z"/><path fill="#ce6a4a" d="m672 309 2 1v3h6c1 1 1 1 1 6h2c-1 3-1 3-6 6a706 706 0 0 0 1 7l-5 1v2h-2v2h-2v4c-3.812.5-3.812.5-8 0-3-4-3-4-2.5-7.812L659 330l-3 1-1-4 3-5 4 1a97 97 0 0 0 0-7c2-4 2-4 6-6h3z"/><path fill="#cf8973" d="M622 546c1.987 4.968 2.338 7.754 2 13l-2 3 .133-2.992c-.008-3.89-.109-7.248-1.133-11.008-4.937-1.5-4.937-1.5-10-2l-.555-2.983L609 540c-4.246-.624-7.926-.813-12.186-.769l-3.899-.03c-4.342-.027-8.684-.01-13.026.007q-4.65-.015-9.302-.037c-8.444-.032-16.887-.025-25.332-.01-7.035.01-14.071 0-21.107-.01-16.59-.023-33.181-.016-49.772.012-17.146.028-34.293.008-51.44-.035q-22.043-.053-44.084-.03c-8.788.007-17.576.006-26.365-.021-8.26-.025-16.52-.015-24.78.021q-4.562.012-9.122-.013c-4.134-.021-8.266 0-12.4.033l-3.692-.05c-3.333.054-3.333.054-8.493.932-1.637 3.493-1.637 3.493-2 7l-2 1-1-2h-5c2.319-4.638 3.378-5.746 8-8 4.254-.391 8.246-.555 12.499-.532l3.855-.027c4.27-.025 8.54-.022 12.81-.019q4.587-.018 9.175-.04c8.314-.037 16.628-.049 24.942-.055 8.697-.01 17.394-.042 26.091-.071q21.915-.066 43.832-.095c16.89-.023 33.78-.067 50.67-.123q24.365-.08 48.73-.131 10.37-.024 20.741-.056 12.217-.036 24.436-.044 4.484-.006 8.967-.022c4.081-.014 8.163-.016 12.245-.014l3.578-.022c11.165.03 19.372.763 27.429 9.251"/><path fill="#f7c5b4" d="M697 409c1.425 5.701.663 10.763-1 16.375-2.627 9.524-2.136 19.693-2.1 29.494l.004 4.444c.005 4.897.018 9.794.03 14.691l.014 10.552q.015 11.346.038 22.691c.023 11.948.036 23.896.048 35.844l.012 12.27.003 3.096a130137 130137 0 0 0 .044 38.06q.036 25.853.084 51.706.049 26.542.065 53.086.013 17.835.06 35.672.022 11.061.019 22.122.003 5.15.023 10.303c.017 4.665.016 9.33.01 13.995l.029 4.177c-.014 3.143-.18 6.285-.383 9.422l-3 1c-.298-4.536-.373-8.937-.336-13.477v-4.43c.004-4.955.03-9.91.055-14.864q.012-5.295.019-10.592.025-12.947.081-25.895c.042-10.054.068-20.108.094-30.163q.072-26.93.178-53.86.101-26.11.166-52.221.07-28.416.164-56.831l.02-6.072.01-3.018q.035-10.5.06-20.999.038-14.17.101-28.34.021-5.191.032-10.385c.01-4.739.032-9.478.057-14.217v-4.118c.098-13.532 1.71-26.469 5.299-39.518"/><path fill="#e0a390" d="m305.551 653.733 3.945-.014c4.382-.013 8.764-.011 13.146-.01q4.7-.008 9.401-.02c8.527-.018 17.054-.022 25.58-.024 7.11-.001 14.22-.009 21.33-.016q25.155-.023 50.31-.02c17.319.002 34.637-.02 51.956-.051q22.278-.038 44.558-.036c8.878 0 17.755-.005 26.633-.026q12.522-.029 25.042-.005 4.602.003 9.204-.015c4.18-.015 8.359-.006 12.539.01l3.7-.032c6.187.051 10.385.301 15.105 4.526l-4 1-3-2v-2c-4.004-.19-7.94-.239-11.945-.21-.643.002-.643.002-3.894.006-4.348.008-8.697.03-13.045.053l-9.3.024c-8.453.022-16.905.056-25.358.093-8.822.037-17.644.063-26.467.09q-22.231.074-44.464.165-25.742.104-51.484.184-27.343.087-54.685.19l-15.81.053q-12.402.041-24.805.096-4.566.019-9.131.033-6.206.019-12.413.051l-3.696.007c-8.275.05-8.275.05-10.503 1.165v3h-3l-1 3-2.98.277L284 664c-.988 2.941-.988 2.941-1.313 6.563-.214 2.147-.44 4.293-.687 6.437h-1c-.39-8.095-.173-12.501 5.437-18.687 5.827-5.259 11.708-4.6 19.114-4.58"/><path fill="#d28d76" d="M779 200h2v2l4-1 4 1 1 2 3.813.375C798 205 798 205 802 209l5 2 1 2 4 1v3l3 3 1 3-1 2h2v2l5 2v2l-2 1c-.07 2.312-.026 4.627.063 6.938.123 9.168-.816 18.156-3.063 27.062h-2v5h-2v3h-2v2h3v2h-2l-1 5-2 2h-3l-.437 3-.563 3h-4c-2.03.937-4.037 1.93-6 3 2-4 2-4 5.125-7.375 7.358-8.251 12.17-17.952 14.875-28.625l2-5c1.953-11.88.255-21.665-6-32-6.827-8.145-15.345-13.706-26-15-5.272-.236-9.981.126-15.125 1.188L765 208l1-3c2.322-.407 4.657-.744 7-1v-1h6z"/><path fill="#ce765a" d="M739 813c1.315 5.26-.08 7.993-2 13l-3 5a1138 1138 0 0 0-3 9l-2 3 2 3 1 4 4 2h-39c3-2 3-2 7-3.687 16.555-7.657 27.934-18.19 35-35.313"/><path fill="#d18368" d="m654 286 9.5 9.5 2.375 2.371a577 577 0 0 1 4.625 4.692c2.313 2.254 4.694 4.374 7.125 6.5 5.628 5.065 8.059 8.143 8.688 15.687-.445 6.047-2.39 10.326-6.688 14.625-6.116 3.786-10.525 3.808-17.625 2.625v-1l2.938-.375L668 340l1-3h2v-2h2v-2l5-1-2-3 1-5 5-3 1-2h-2l-1-5c-2.937-.625-2.937-.625-6-1l-2-3-3 2-1-4h-2c-2-3-2-3-2-6h-3l-1-7h-3l-1-5h-3z"/><path fill="#ce785b" d="m837 344 1 2-1 3h-3v3l-2 1c-3 5-3 5-5 10l-4-1-3 1-2 5c-2.488 6.22-5.478 8.343-11 12l-4-2c-3 1-3 1-5 5l-4 3-2 3c-5 2.25-5 2.25-10 4l-2-1c2.09-1.881 4.281-3.649 6.5-5.375l4.203-3.293L795 380a7146 7146 0 0 0 7.25-5.687l3.469-2.723c9.879-7.797 19.57-15.735 28.343-24.777z"/><path fill="#d07555" d="M574 174c6 0 6 0 10 3l2 5 2 1v-2l-2-1h3l1-3h3l3-2c-2 4-2 4-5.25 7.625-7.637 8.91-11.658 18.492-15.75 29.375-1.279-3.836-1.252-6.976-1-11l3-3c.571-10.857.571-10.857-2-16h-2l3-6h-2z"/><path fill="#d17a5d" d="M833 192c8.906 6.54 14.037 16.9 18 27l-1 3-3-2v-2h-2l-1 2-1-4h-3l-1 5h-3l-1 2-3 1-1 3v-3h-2l2-4 3 1q-.491-3.5-1-7l2-5h3v-3l2-2h-5c.256-2.343.593-4.678 1-7l-3-1z"/><path fill="#d2876d" d="M781 349h6l-1 2h-2v2a977 977 0 0 1-8 6 418 418 0 0 0-7.898 7.242C766 368 766 368 764 368l-2 4a230 230 0 0 1-6.125 6c-5.403 5.277-9.597 10.568-13.484 17.027L741 397l-1-2h-2c1.074-5.37 1.984-6.572 6-10h2v-2h3l-1-4 2 1 1-5 3-1v-2l4 1 2-2-.187-3.562L760 364c5-1 5-1 7-1v-2l4-2v-2h5v-2h-2v-2l3.5.125L781 353z"/><path fill="#d07b5e" d="M814 318h3l1 4c-3.434 3.273-3.434 3.273-8 7a2041 2041 0 0 0-12.098 11.477c-3.51 3.168-6.853 6.076-10.902 8.523-1.687-2.562-1.687-2.562-2-6 4-2 4-2 7-3l1.375-5 1.625-5 5-1v-3l4 1v-2l5 1 1-3h2l1-4z"/><path fill="#d17b60" d="M618 659c4.073 4.073 5.78 6.616 6.313 12.375-.54 6.26-2.345 9.64-6.75 14.125L614 688l-4-1v-3h2l1-4 4-1-3-5c-.4-3.326-.74-6.66-1-10l-1-2 3.563.75L619 663z"/><path fill="#cf6c4b" d="M639 258c3.131 4.697 5.375 9.847 7.832 14.922C649 277 649 277 651.824 280.89L654 284l-1 2-2-2h-5l-1-4h-4l-1 4h-2l-1-5-3-1c-1-3.875-1-3.875-1-8l5-3c.813-4.687.813-4.687 1-9"/><path fill="#ca6c4d" d="m224.82 170.962 4.791.052 5.159.072 5.292.064q5.533.07 11.068.147a7940 7940 0 0 0 17.032.21l10.733.141 5.188.06 4.744.07 4.208.057L296 172v1c-2.258.075-4.518.075-6.777.05l-4.48-.04-4.895-.053q-5.052-.034-10.104-.064c-5.35-.038-10.702-.08-16.052-.14-5.136-.054-10.271-.083-15.407-.108l-4.89-.073-4.489-.01-3.976-.036L222 173l-1 4-2 3-2-2-1 4h-2v-2h-3v-2l-2 1q-5.496.55-11 1c7.3-7.3 16.863-9.159 26.82-9.038"/><path fill="#d38a71" d="M656 204a151 151 0 0 1 12.313-.312l3.498-.01c8.655.055 8.655.055 13.189 2.322l-2.746-.07c-11.744-.174-21.51 1.093-31.254 8.07-2.679 2.854-4.751 5.767-7 9l-3 3c-.187-3.5-.187-3.5 0-7h3l1-4 1-3-2-1c2.063-3.062 2.063-3.062 5-6h5l-2 1 3 1z"/><path fill="#ca6747" d="m662 173-3 4 1 4-1 2-1 3-5 3-1 3-3 2c-1.024-5.118-.71-6.371 1-11v-3h-5v-3c5.8-2.78 10.538-4.562 17-4"/><path fill="#ce6d4b" d="M827 290h2l3 4 4-1v-2h4c-2.096 5.24-4.663 8.827-8.062 13.313l-3.286 4.363L826 312h-1c-.313-5.112.605-9.116 2-14h-2v-2h-4v-4l5-1z"/><path fill="#d59580" d="M573 212c1 3 1 3-.375 8.25-3.607 14.86-3.44 30.782-.625 45.75l.582 3.355c.45 2.553.93 5.1 1.418 7.645-3-4-3-4-4.562-8.25L568 265h-2c.162-4.362.444-8.654.813-13l.593-7.703q.512-6.361 1.063-12.719l.343-4.328.333-3.734L569 221h-3v-5l5 1v-4z"/><path fill="#d1876f" d="M753 179c-4 2-4 2-6.937 2.813-3.657 1.417-5.38 3.367-8.063 6.187-5 3-5 3-7 3v2c-5.312.625-5.312.625-11 0-2.125-3.812-2.125-3.812-3-8l-1-3-3 1v-3c5 2 5 2 9 5.688l4 3.312c5.02-1.004 6.25-1.694 9.938-4.875 10.064-8.29 10.064-8.29 17.062-5.125"/><path fill="#d5957f" d="m713 179-3 2v-2c-3.06-.033-6.12-.056-9.18.027C698 179 698 179 696 178l-1-5-4 1-5-1c-11.681-.434-23.346.237-35 1 17.036-11.358 45.304-3.234 62 5"/><path fill="#e1a693" d="m300.247 653.757 4.489-.01 4.842.023h4.96q5.19.006 10.38.024c5.324.018 10.648.02 15.973.02l10.062.018 4.867.003 4.45.02 3.948.011L367 654v1c-2.16.122-4.323.168-6.486.19l-4.288.05-4.687.041-4.761.056q-7.576.088-15.153.163-9.95.101-19.898.219l-4.675.04-4.307.052-3.81.038C296 656 296 656 294 657v3h-3l-1 3-2.98.277L284 664c-.988 2.941-.988 2.941-1.312 6.563-.215 2.147-.44 4.293-.688 6.437h-1c-.39-8.095-.173-12.501 5.438-18.687 4.546-4.104 7.89-4.562 13.81-4.556"/><path fill="#d2876f" d="M815 260h3c-.187 3-.187 3-1 6h-2v5h-2v3h-2v2h3v2h-2l-1 5-2 2h-3l-.437 3-.563 3h-4c-2.03.937-4.037 1.93-6 3 2-4 2-4 5.125-7.375 6.085-6.798 10.52-14.982 13.688-23.5z"/><path fill="#d48b72" d="M739 813c1.315 5.26-.08 7.993-2 13l-3 5a1138 1138 0 0 0-3 9l-2 3h-3v-2l-4-2-1 3h-3l-1 3-4-1 2.414-1.723C726.713 834.044 732.882 825.56 739 813"/><path fill="#d28e77" d="m780.25 169.813 5.39-.043c5.329.229 10.182.973 15.36 2.23v1c-2.611.125-5.226.18-7.84.21l-4.908.087q-5.183.078-10.367.133l-4.912.093-4.555.06c-.564.07-.564.07-3.418.417l-1 3c-2.335-.32-4.668-.656-7-1-2.007.644-4.01 1.306-6 2l-2-2c2.875-1.254 2.875-1.254 7-2.562l4.063-1.317c6.85-1.95 13.048-2.283 20.187-2.309"/><path fill="#d28870" d="M607 264c2.703 4.055 2 7.214 2 12l2 1-1 2 3-.625 3-.375v2l2 1-1.125 3.313L616 288l4 4 1 5c4 3 4 3 7 4l-2 5c-9-9-17.073-21.461-20-34 .188-4.812.188-4.812 1-8"/><path fill="#d08166" d="m172 803 4 2 1 4 4 3 2 5 3 1 1 4-3 2v5c-3.514-3.514-5.043-5.615-7.125-9.937l-1.508-3.09C173.227 811.318 172 808.19 172 803"/><path fill="#cd795d" d="M694 736h1c.189 4.382.31 8.748.387 13.133l.077 4.06q.078 4.27.149 8.54c.074 4.352.165 8.704.256 13.056q.073 4.14.143 8.281l.088 3.95.051 3.7.058 3.243c-.229 3.328-.898 5.972-2.209 9.037h-2l-1 5c-2.812 1.688-2.812 1.688-6 3l-4 2 2.688-2.875c3.652-4.549 5.8-8.884 8.312-14.125h1c.15-4.38.236-8.744.281-13.125l.056-4.036q.088-6.42.163-12.839.101-8.437.219-16.875l.04-3.977c.043-3.05.136-6.1.241-9.148"/><path fill="#f0c0af" d="M697 409c1.425 5.701.663 10.763-1 16.375-2.9 10.512-2.192 21.95-2.281 32.762l-.114 10.556q-.08 8.293-.157 16.586-.079 8.023-.167 16.045l-.04 5.066-.052 4.624-.038 4.099L693 518h-1a170 170 0 0 1-.145-7.182l-.02-4.757-.003-5.217-.01-5.333q-.007-5.62-.007-11.239c-.002-5.691-.02-11.382-.04-17.073q-.005-5.459-.005-10.918l-.022-5.119c.027-14.503 1.404-28.169 5.252-42.162"/><path fill="#d18165" d="M720 808h5c-1.665 8.323-5.907 16.209-11 23h-1c-.687-4.5-.687-4.5-1-9h2l-1-4-2-1a124 124 0 0 1 6-4l4-3z"/><path fill="#cd6445" d="m719 843 5 1v2h4l2 5c-4.145.559-4.145.559-9.812.438l-5.645-.067L710 851l-1-2 4-4h6z"/><path fill="#d38d75" d="M758 207c3.438.313 3.438.313 7 1l-3 2c-7.146 5.071-11.903 9.548-15.687 17.438L744 232l-2-1c.25-4.562.25-4.562 1-9h2l-1-4 3 1 1-5h2l1-3 4.125-.5L759 210z"/><path fill="#d2856b" d="m681 329 3 3c-2.313 5.781-4.234 7.68-9.75 10.313-4.294.908-7.948.404-12.25-.313v-1l2.938-.375L668 340l1-3h2v-2h2v-2l3-1-1 5h2v-2h3c.688-3 .688-3 1-6"/><path fill="#d4927b" d="M687 205c4 1 4 1 7.625 2.688L698 209l2-2 2 5 2 1v3l2.938.125L710 217c.75 4.5.75 4.5 1 9l2 1-2 4-1.031-2.379c-4.499-9.751-9.456-15.374-19.594-19.434L685 207z"/><path fill="#d18269" d="m776 311 2 1c-.187 3.5-.187 3.5-1 7-3 1-3 1-6.25 1.375L768 321l1 3-1 2-3 1-1 3c-3.375-.437-3.375-.437-6-2 3.065-5.464 8.73-9.193 13.574-13.047C774 313 774 313 776 311m-17 18 2 1-2 1z"/><path fill="#d38b73" d="M639 258c3.131 4.697 5.375 9.847 7.832 14.922C649 277 649 277 651.824 280.89L654 284l-1 2-2-2h-5v-2h2l-3-3v-4l-5-2-2-1 1-4h2v-2h-2a128 128 0 0 1 0-8"/><path fill="#d28c73" d="M615 200c1 2 1 2 0 7h-2a281 281 0 0 0-1 7l-2 5v4c-2.294 1.72-4.614 3.41-7 5 1.438-10.066 6.393-19.59 12-28"/><path fill="#d6947d" d="M635 317c3.563.313 3.563.313 7 1l-1 2 4 2v4l3-1 1 4 3 1 2 4 3 1 1-4c1 3 1 3 0 6l2 1 1 3c-9.956-4.978-18.454-14.886-26-23z"/><path fill="#d4927b" d="M193 838c2.342.265 4.676.606 7 1h3l2 1v5l5 1a272 272 0 0 1 9 5c-5.729 1.91-11.81-2.467-17-5-3.224-1.84-6.032-3.748-9-6z"/><path fill="#daa18c" d="m811 220 5 2-1 3h2v2l5 2v2l-2 1c-.096 2.436-.074 4.876 0 7.313.084 7.195-.315 13.682-2 20.687l-3-1a163 163 0 0 1 2-6c2.024-12.484-.488-21.977-6-33"/><path fill="#d49179" d="M781 349h6l-1 2h-2v2a977 977 0 0 1-8 6 428 428 0 0 0-7.996 7.242C766 368 766 368 765 368v-5h2v-2l4-2v-2h5v-2h-2v-2l3.5.125L781 353z"/><path fill="#dea693" d="M852 227h1c3.333 14.457 1.75 31.06-3 45l-2 2c-1-5-1-5 1-9l-.062-4.5C849 256 849 256 852 252c.19-4.3.235-8.458.125-12.75A712 712 0 0 1 852 227"/><path fill="#d28d75" d="m837 344 1 2-1 3h-3v3l-2 1c-3 5-3 5-5 10l-4-1c-3.25.938-3.25.938-6 2 3.425-4.71 7.615-8.195 12-12a509 509 0 0 0 4.438-4.562c1.175-1.135 2.35-2.27 3.562-3.438"/><path fill="#c76546" d="m605 227 5 1v6l-3 2c-.04 3-.043 6 0 9h-2a202 202 0 0 0-1 7h-1c-.101-3.332-.13-6.666-.125-10l-.008-5.625L603 232h1z"/><path fill="#d38c74" d="M695 841c3.563-.187 3.563-.187 7 0-3.15 3.15-5.847 4.64-9.812 6.625l-3.645 1.852c-3.288 1.413-5.964 2.38-9.543 2.523v-3q2.999-.51 6-1l1-3 8-1z"/><path fill="#d18369" d="m830 832 5 1c-1.247 4.987-2.867 5.816-6.937 8.813l-3.278 2.457L822 846l-2-1c.625-3.562.625-3.562 2-7h4v-2l3-2z"/><path fill="#d18b73" d="m800 376 2 1c-2.295 4.06-4.214 6.16-8 9l-2 3c-5 2.25-5 2.25-10 4l-2-1c2.28-2.024 4.656-3.94 7.063-5.812l4.097-3.208L795 380l2.871-2.45z"/><path fill="#d18971" d="M836 291h4c-2.096 5.24-4.663 8.827-8.062 13.313l-3.286 4.363L826 312h-1c-.187-3.375-.187-3.375 0-7l2-2 1 1 1-3h2v-2h2l1-5 2-1z"/><path fill="#d68367" d="m679 813 2 1-1 3h-5v6l-5-1v2c-6.266 0-11.057-.057-17-2v-1c5.21-.033 10.415.07 15.625.16L673 821v-2h-6v-1l9-3z"/><path fill="#d28c73" d="M752 426h1c.188 4.5.188 4.5 0 9h-2l.938 3.75C753 443 753 443 752 447l-2-1-1 3h-3c0-7.87 3.197-15.728 6-23"/><path fill="#d2876d" d="M846 269c2 2 2 2 2 8-1.277 3.43-1.277 3.43-2.937 6.875l-1.653 3.492L842 290h-1a123 123 0 0 1-1-8c1-1 1-1 4-3l-2-3c1-4 1-4 4-7"/><path fill="#d6917a" d="M595 175c0 4.517-2.9 6.283-5.828 9.43-2.22 2.626-3.864 5.266-5.547 8.257L581 197l-2-2c1-4 1-4 3-8h3l-1-5 4 1v-2l-2-1h3l1-3h3z"/><path fill="#d08e78" d="M639 228c1 2 1 2 .063 6.063-1.419 6.59-1.261 12.33-.438 19L639 257h-2v-6h-2c-.122-2.956-.12-5.917-.062-8.875.16-8.929.16-8.929-.938-11.125l1-2z"/><path fill="#d08268" d="m726 356 2 1c-2.177 10.383-2.177 10.383-7 14h-5c1.725-4.312 3.173-6.831 6-10.375l2.125-2.71z"/><path fill="#d58b71" d="m221 172-12 4 6-1c1 3.438 1 3.438 1 7h-2v-2h-3v-2l-2 1q-5.495.55-11 1c5.715-5.715 14.952-10.012 23-8"/><path fill="#d38a71" d="M814 318h3l1 4c-3.625 3.438-3.625 3.438-8 7l-2.812 3-2.188 2-3-1v-2h3l1-4 3-1 1-3h2l1-4z"/><path fill="#d59078" d="m296 656-2 1v3h-3l-1 3-2.98.277L284 664c-.988 2.941-.988 2.941-1.312 6.563-.215 2.147-.44 4.293-.688 6.437h-1c-.393-8.163.057-12.321 5.25-18.812 3.457-2.75 5.442-2.61 9.75-2.188"/></svg>